<?xml version="1.0" standalone="no"?><!DOCTYPE svg PUBLIC "-//W3C//DTD SVG 1.1//EN" "http://www.w3.org/Graphics/SVG/1.1/DTD/svg11.dtd"><svg t="1602503356940" class="icon" viewBox="0 0 1024 1024" version="1.1" xmlns="http://www.w3.org/2000/svg" p-id="4015" xmlns:xlink="http://www.w3.org/1999/xlink" width="200" height="200"><defs><style type="text/css"></style></defs><path d="M356.7638627 755.56499917C356.7638627 789.61560251 329.33066172 817.19095878 295.49735378 817.19095878 261.67226982 817.19095878 234.25925827 789.61560251 234.25925827 755.56499917L234.25925827 444.63594955C234.25925827 410.59663315 261.68124269 383.00172358 295.49735378 383.00172358 329.33066172 383.00172358 356.7638627 410.59663315 356.7638627 444.63594955L356.7638627 755.56499917ZM778.85020737 755.86524753C778.85020737 789.91284102 751.41924945 817.50850543 717.59491319 817.50850543 683.75861331 817.50850543 656.34859369 789.91284102 656.34859369 755.86524753L656.34859369 566.91412161C656.34859369 532.88383717 683.75861331 505.26785326 717.59491319 505.26785326 751.41924945 505.26785326 778.85020737 532.88383717 778.85020737 566.91412161L778.85020737 755.86524753ZM567.81114793 755.86524753C567.81114793 789.91284102 540.37196423 817.50850543 506.54463721 817.50850543 472.71955446 817.50850543 445.2983177 789.91284102 445.2983177 755.86524753L445.2983177 268.74520424C445.2983177 234.70588786 472.71955446 207.11022285 506.54463721 207.11022285 540.37196423 207.11022285 567.81114793 234.70588786 567.81114793 268.74520424L567.81114793 755.86524753Z" p-id="4016" fill="#ffffff"></path></svg>