<?xml version="1.0" standalone="no"?><!DOCTYPE svg PUBLIC "-//W3C//DTD SVG 1.1//EN" "http://www.w3.org/Graphics/SVG/1.1/DTD/svg11.dtd"><svg t="1602556680629" class="icon" viewBox="0 0 1024 1024" version="1.1" xmlns="http://www.w3.org/2000/svg" p-id="1108" xmlns:xlink="http://www.w3.org/1999/xlink" width="200" height="200"><defs><style type="text/css"></style></defs><path d="M833.39330732 212.09423558a128.56555107 128.56555107 0 0 1 128.56555195 128.56555108V790.76778227a128.56555107 128.56555107 0 0 1-128.56555195 128.56555107H190.56555107a128.56555107 128.56555107 0 0 1-128.56555107-128.56555107V340.65978666a128.56555107 128.56555107 0 0 1 128.56555107-128.56555108h642.82775625z m0 64.28277598H190.56555107a64.28277598 64.28277598 0 0 0-64.28277509 64.2827751V790.76778227a64.28277598 64.28277598 0 0 0 64.28277509 64.28277509h642.82775625a64.28277598 64.28277598 0 0 0 64.28277598-64.28277509V340.65978666a64.28277598 64.28277598 0 0 0-64.28277598-64.2827751z m-546.40359228 129.20837871h128.56555108a32.14138799 32.14138799 0 0 1 32.14138799 32.14138799v0.12856553a32.14138799 32.14138799 0 0 1-32.14138799 32.14138799h-128.56555108a32.14138799 32.14138799 0 0 1-32.14138799-32.14138799V437.85534379a32.14138799 32.14138799 0 0 1 32.14138799-32.14138799z m0 128.82268213h128.56555108a32.14138799 32.14138799 0 0 1 32.14138799 32.14138799v0.06428321a32.14138799 32.14138799 0 0 1-32.14138799 32.14138799h-128.56555108a32.14138799 32.14138799 0 0 1-32.14138799-32.14138799v-0.06428321a32.14138799 32.14138799 0 0 1 32.14138799-32.14138799z m128.56555108 128.75839981a32.14138799 32.14138799 0 0 1 32.14138799 32.14138798v0.06428321a32.14138799 32.14138799 0 0 1-32.14138799 32.14138711h-128.56555108a32.14138799 32.14138799 0 0 1-32.14138799-32.14138711v-0.06428321a32.14138799 32.14138799 0 0 1 32.14138799-32.14138798h128.56555108z m257.13110214-265.23073213c88.71023057 0 160.70693906 71.99670849 160.70693906 160.89978779a160.83550459 160.83550459 0 0 1-160.70693906 160.96407012c-88.71023057 0-160.70693906-72.0609917-160.70693906-160.96407012A160.83550459 160.83550459 0 0 1 672.68636826 398.00002328z m0 64.3470583A96.48844628 96.48844628 0 1 0 769.11053223 558.83552787c0-53.35470352-43.1980251-96.55272862-96.42416397-96.55272949z m40.62671455-431.59455527l3.34270459 4.75692539 96.29559757 167.00665078a32.14138799 32.14138799 0 0 1-52.3261793 36.9625957l-3.3427046-4.69264219v-0.0642832L660.98690352 67.65083881a32.14138799 32.14138799 0 0 1 52.32617929-36.9625957z" fill="#ffffff" p-id="1109"></path></svg>