<?xml version="1.0" standalone="no"?>
<!DOCTYPE svg PUBLIC "-//W3C//DTD SVG 1.1//EN" "http://www.w3.org/Graphics/SVG/1.1/DTD/svg11.dtd" >
<!--
2013-9-30: Created.
-->
<svg>
<metadata>
Created by iconfont
</metadata>
<defs>

<font id="iconfont" horiz-adv-x="1024" >
  <font-face
    font-family="iconfont"
    font-weight="500"
    font-stretch="normal"
    units-per-em="1024"
    ascent="896"
    descent="-128"
  />
    <missing-glyph />
    
    <glyph glyph-name="-sequence" unicode="&#58957;" d="M1010.347864 82.82725700000003c-12.673206 12.357872-32.888465 12.357872-45.568656 0-72.739211-85.385473-178.940673-135.014544-291.109519-136.026405H452.624036c-213.544512 0.009979-386.651519 173.123971-386.651519 386.667485 0 213.544512 173.108005 386.657506 386.651519 386.668483h308.791136V607.2305329999999a12.244113 12.244113 0 1 1 18.359184-10.883988l231.936626 136.032392a12.2501 12.2501 0 0 1 6.020272 10.540714c0 4.334835-2.293152 8.345356-6.020272 10.544706L779.773358 885.414381a12.233136 12.233136 0 0 1-12.361864-0.071848 12.227149 12.227149 0 0 1-5.99732-10.814136v-92.499433H452.624036C203.197388 782.029962 0.99789 579.830464 0.99789 330.403816c0-249.42066 202.199498-451.620159 451.626146-451.620158h220.368085c130.434228 0.158665 254.433063 56.698126 340.07699 155.076129a32.623027 32.623027 0 0 1 9.718452 25.09594 32.630012 32.630012 0 0 1-12.439699 23.87153z m0 0"  horiz-adv-x="1025" />

    
    <glyph glyph-name="-classify" unicode="&#58915;" d="M424.01 475.923c-0.276-0.147-0.426-0.222-0.48-0.247 0.058 0.026 0.138 0.06 0.233 0.099a3.05 3.05 0 0 0 0.246 0.148z m-1.706-1.498c-0.019-0.037-0.093-0.184-0.227-0.434a3.05 3.05 0 0 0 0.148 0.246c0.03 0.072 0.056 0.136 0.08 0.188z m0 0a3.249 3.249 0 0 0 0.012 0.028l-0.012-0.028z m-0.32-0.89l0.003 0.012-0.003-0.012zM423 491.917V592c0 64.617-52.383 117-117 117-64.617 0-117-52.383-117-117 0-64.617 52.383-117 117-117h100.083c7.798 0 13.032 0.271 16.245 0.672 0.401 3.213 0.672 8.447 0.672 16.245zM306 769c97.754 0 177-79.246 177-177v-100.083c0-26.746-2.785-36.445-8.014-46.222-5.23-9.778-12.903-17.452-22.68-22.681-9.778-5.23-19.477-8.014-46.223-8.014H306c-97.754 0-177 79.246-177 177s79.246 177 177 177z m114.077-474.99c0.147-0.276 0.222-0.426 0.247-0.48a5.155 5.155 0 0 0-0.099 0.233 3.05 3.05 0 0 0-0.148 0.246z m1.498-1.706c0.037-0.019 0.184-0.093 0.434-0.227a3.05 3.05 0 0 0-0.246 0.148 5.777 5.777 0 0 0-0.188 0.08z m-0.028 0.012a1.435 1.435 0 0 1 0.028-0.012l-0.028 0.012zM404.083 293H304c-64.617 0-117-52.383-117-117 0-64.617 52.383-117 117-117 64.617 0 117 52.383 117 117V276.08299999999997c0 7.798-0.271 13.032-0.672 16.245-3.213 0.401-8.447 0.672-16.245 0.672zM304-1c-97.754 0-177 79.246-177 177s79.246 177 177 177h100.083c26.746 0 36.445-2.785 46.222-8.014 9.778-5.23 17.452-12.903 22.681-22.68 5.23-9.778 8.014-19.477 8.014-46.223V176c0-97.754-79.246-177-177-177z m301.923 474.99a11.547 11.547 0 0 0-0.247 0.48c0.026-0.058 0.06-0.138 0.099-0.233 0.055-0.084 0.105-0.167 0.148-0.246z m-1.498 1.706a20.659 20.659 0 0 0-0.434 0.227c0.08-0.043 0.162-0.093 0.246-0.148 0.072-0.03 0.136-0.056 0.188-0.08z m0 0a3.249 3.249 0 0 0 0.028-0.012l-0.028 0.012z m-0.89 0.32l0.012-0.003-0.012 0.003zM621.917 475H722c64.617 0 117 52.383 117 117 0 64.617-52.383 117-117 117-64.617 0-117-52.383-117-117v-100.083c0-7.798 0.271-13.032 0.672-16.245 3.213-0.401 8.447-0.672 16.245-0.672zM722 769c97.754 0 177-79.246 177-177s-79.246-177-177-177H621.917c-26.746 0-36.445 2.785-46.222 8.014-9.778 5.23-17.452 12.903-22.681 22.68-5.23 9.778-8.014 19.477-8.014 46.223V592c0 97.754 79.246 177 177 177zM601.99 292.077c0.276 0.147 0.426 0.222 0.48 0.247a5.155 5.155 0 0 0-0.233-0.099 3.05 3.05 0 0 0-0.246-0.148z m1.706 1.498c0.019 0.037 0.093 0.184 0.227 0.434a3.05 3.05 0 0 0-0.148-0.246 5.777 5.777 0 0 0-0.08-0.188z m-0.012-0.028a1.435 1.435 0 0 1 0.012 0.028l-0.012-0.028zM603 276.08299999999997V176c0-64.617 52.383-117 117-117 64.617 0 117 52.383 117 117 0 64.617-52.383 117-117 117H619.917c-7.798 0-13.032-0.271-16.245-0.672-0.401-3.213-0.672-8.447-0.672-16.245zM720-1c-97.754 0-177 79.246-177 177V276.08299999999997c0 26.746 2.785 36.445 8.014 46.222 5.23 9.778 12.903 17.452 22.68 22.681 9.778 5.23 19.477 8.014 46.223 8.014H720c97.754 0 177-79.246 177-177s-79.246-177-177-177z"  horiz-adv-x="1024" />

    
    <glyph glyph-name="-random" unicode="&#58890;" d="M814.07241482 577.93801482h103.76533333c27.1853037 0 41.26340741 32.52527408 22.5735111 52.30743703l-87.38133333 92.96402963c-11.77220741 12.50038518-31.43300741 13.1072-43.93339259 1.3349926-12.50038518-11.77220741-13.1072-31.43300741-1.33499258-43.9333926l38.10797036-40.53522963h-31.91845926C703.75348148 640.0758518499999 632.02797037 578.90891852 485.30014815 401.59762963l-10.67994074-12.86447408c-123.79022222-149.39780741-187.62714075-203.04023703-265.54216296-203.04023703h-103.15851853c-17.11217778 0-31.06891852-13.95674075-31.06891851-31.06891852s13.95674075-31.06891852 31.06891851-31.06891852h103.15851853c104.61487408 0 176.70447408 60.68148148 313.48053333 225.61374815l10.67994074 12.86447407c133.62062222 161.29137778 197.5789037 215.90471111 280.8338963 215.90471112zM917.95911111 188.12017777999995H814.19377778c-64.5650963 0-127.06702222 40.77795555-205.34613333 126.58157037-10.8013037 11.77220741-29.12711111 12.62174815-41.02068148 1.82044444-11.77220741-10.8013037-12.62174815-29.12711111-1.82044445-41.02068148 88.35223703-96.72628148 162.99045925-145.51419259 248.18725926-145.51419259h37.86524444l-42.84112592-46.72474074c-10.8013037-11.77220741-10.07312592-30.09801482 1.69908148-41.02068148 11.77220741-10.8013037 30.09801482-10.07312592 41.02068147 1.69908148l87.5026963 95.26992592c16.86945185 18.93262222 3.76225185 48.90927408-21.48124444 48.90927408zM106.04088889 582.4284444499999h103.15851852c62.50192592 0 123.66885925-41.38477037 203.04023704-129.73700742 11.40811852-12.74311111 31.06891852-13.83537778 43.81202963-2.42725925s13.83537778 31.06891852 2.42725925 43.81202963c-90.17268148 100.48853333-163.96136297 150.36871111-249.27952592 150.36871111h-103.15851852c-17.11217778 0-31.06891852-13.95674075-31.06891852-31.06891852 0-17.11217778 13.83537778-30.94755555 31.06891852-30.94755555z"  horiz-adv-x="1024" />

    
    <glyph glyph-name="-payment" unicode="&#58901;" d="M952.479688 443.543704L851.147602 88.14783599999998C847.893957 76.72015599999997 834.969201 67.61793399999999 822.234074 67.61793399999999H214.910253c-12.745107 0-25.659883 9.102222-28.923508 20.529902L85.722573 439.840936a87.820476 87.820476 0 1 0 106.022924 57.50768l135.295751-82.588694 132.890448 234.062846a87.82846 87.82846 0 1 0 119.356881 0.239532l39.293255-67.647875 92.090137-167.133567 135.635088 82.778323a87.82846 87.82846 0 1 0 106.172631-53.515477zM108.288499 551.672515a26.947368 26.947368 0 1 1 26.947368-26.947369 26.947368 26.947368 0 0 1-26.947368 26.947369z m411.196881 188.631579a26.947368 26.947368 0 1 1 26.947369-26.947369 26.947368 26.947368 0 0 1-26.947369 26.947369z m313.018636-329.63618C810.786433 397.613411 685.600936 322.120858 685.600936 322.120858l-82.788304 157.073216L522.389708 625.5282649999999 355.146355 331.10331399999995s-132.451306 72.248889-150.595868 82.448967-37.376998 9.940585-25.979259-32.057388l74.23501-229.561638c2.634854-9.152125 13.094425-16.447875 23.404288-16.447875h491.370293c10.299883 0 20.759454 7.29575 23.394308 16.447875l66.380351 226.677271c12.565458 43.734581-3.133879 45.10191-24.851462 32.057388z m95.992514 144.308148a26.947368 26.947368 0 1 1 26.947369-26.947368 26.947368 26.947368 0 0 1-26.947369 26.947368zM268.974659 7.734893000000056h307.39961a31.937622 31.937622 0 0 0 0-63.875244H268.974659a31.937622 31.937622 0 0 0 0 63.875244z m418.183236 0h70.861598a31.937622 31.937622 0 0 0 0-63.875244h-70.861598a31.937622 31.937622 0 0 0 0 63.875244z"  horiz-adv-x="1024" />

    
    <glyph glyph-name="-book" unicode="&#58895;" d="M508.19-31a12 12 0 0 0-3.93 0.66L229.46 65a64.27 64.27 0 0 0-62.06 64.16V690.75a64.26 64.26 0 0 0 64.19 64.19 11.93 11.93 0 0 0 3.93-0.67l276.61-96a12 12 0 1 0-7.87-22.67l-274.57 95.29a40.24 40.24 0 0 1-38.29-40.14v-561.56A40.24 40.24 0 0 1 231.59 89a11.93 11.93 0 0 0 3.93-0.67l276.61-96a12 12 0 0 0-3.94-23.33zM516.54-31a12 12 0 0 0-12 12V646.91a12 12 0 0 0 8.07 11.33l276.6 96a12 12 0 0 0 3.94 0.67 64.27 64.27 0 0 0 64.19-64.19v-561.53A64.28 64.28 0 0 0 795.27 65l-274.79-95.4a12.11 12.11 0 0 0-3.94-0.6z m12 669.4v-640.56l260.67 90.49a12 12 0 0 0 3.94 0.67 40.24 40.24 0 0 1 40.19 40.19V690.75A40.24 40.24 0 0 1 795 730.89zM239 537l231.39-80.54M470.39 444.46a11.88 11.88 0 0 0-3.95 0.67l-231.38 80.54a12 12 0 1 0 7.88 22.66l231.39-80.54a12 12 0 0 0-3.94-23.33zM239 412l231.39-80.54M470.39 319.46000000000004a11.88 11.88 0 0 0-3.95 0.67l-231.38 80.54a12 12 0 1 0 7.88 22.66l231.39-80.54a12 12 0 0 0-3.94-23.33zM239 287l231.39-80.54M470.39 194.46000000000004a11.88 11.88 0 0 0-3.95 0.67l-231.38 80.54a12 12 0 1 0 7.88 22.66l231.39-80.54a12 12 0 0 0-3.94-23.33zM783.98 308.05999999999995L563.41 201.39999999999998M563.42 189.39a12 12 0 0 0-5.23 22.81l220.56 106.67a12 12 0 1 0 10.45-21.61L568.64 190.59000000000003a12.06 12.06 0 0 0-5.22-1.2zM783.98 433.06L563.41 326.4M563.42 314.39a12 12 0 0 0-5.23 22.81l220.56 106.67a12 12 0 1 0 10.45-21.61L568.64 315.59000000000003a12.06 12.06 0 0 0-5.22-1.2zM783.98 558.06L563.41 451.4M563.42 439.39a12 12 0 0 0-5.23 22.81l220.56 106.67a12 12 0 1 0 10.45-21.61L568.64 440.59a12.06 12.06 0 0 0-5.22-1.2z"  horiz-adv-x="1024" />

    
    <glyph glyph-name="-rank" unicode="&#59121;" d="M897.2 747.8c5.4 0 10-4.6 10-10v-710c0-5.4-4.6-10-10-10H126.8c-5.4 0-10 4.6-10 10v710c0 5.4 4.6 10 10 10h770.4m0 50H126.8c-33 0-60-27-60-60v-710c0-33 27-60 60-60h770.4c33 0 60 27 60 60v710c0 33-27 60-60 60zM250 382.79999999999995h80v-234h-80zM472 621.6h80v-472.8h-80zM704 512.2h80v-363.5h-80z"  horiz-adv-x="1024" />

    
    <glyph glyph-name="-loop" unicode="&#59109;" d="M460.8 72.53333299999997l74.666667-74.666666c6.4-6.4 6.4-19.2 0-25.6-6.4-6.4-19.2-6.4-25.6 0l-106.666667 106.666666c-6.4 6.4-6.4 19.2 0 25.6 4.266667 4.266667 10.666667 6.4 17.066667 4.266667h245.333333c155.733333 0 281.6 125.866667 281.6 281.6 0 91.733333-42.666667 172.8-108.8 224-8.533333 6.4-10.666667 17.066667-4.266667 25.6 6.4 8.533333 17.066667 10.666667 25.6 4.266667 0 0 2.133333 0 2.133334-2.133334 74.666667-57.6 123.733333-149.333333 123.733333-253.866666 0-177.066667-142.933333-320-320-320l-204.8 4.266666zM682.666667 674.133333H403.2c-155.733333 0-281.6-125.866667-281.6-281.6 0-106.666667 57.6-198.4 145.066667-247.466666 8.533333-4.266667 12.8-14.933333 8.533333-25.6-4.266667-8.533333-14.933333-12.8-25.6-8.533334 0 0-2.133333 0-2.133333 2.133334C149.333333 168.53333299999997 85.333333 273.06666700000005 85.333333 392.533333c0 177.066667 142.933333 320 320 320h238.933334l-72.533334 72.533334c-6.4 8.533333-6.4 19.2 0 25.6 6.4 6.4 19.2 6.4 25.6 0l106.666667-106.666667c10.666667-2.133333 17.066667-12.8 12.8-23.466667-2.133333-10.666667-12.8-17.066667-23.466667-12.8-4.266667 2.133333-8.533333 4.266667-10.666666 6.4zM588.8 505.6c2.133333-2.133333 2.133333-6.4 2.133333-8.533333v-243.2c0-10.666667-8.533333-19.2-19.2-19.2s-19.2 8.533333-19.2 19.2v198.4L490.666667 392.533333c-6.4-8.533333-19.2-8.533333-25.6 0-8.533333 6.4-8.533333 19.2 0 25.6l91.733333 91.733334c6.4 8.533333 19.2 8.533333 25.6 2.133333 2.133333 0 4.266667-2.133333 6.4-6.4z"  horiz-adv-x="1068" />

    
    <glyph glyph-name="-comment-one" unicode="&#58894;" d="M512.001 0.004000000000019099c-32.743 0-64.664 2.956-95.7 8.094L191.999-128V98.57899999999995C75.051 180.68899999999996 0 306.597 0 447.997 0 695.425 229.233 896 512.001 896c282.77 0 512.001-200.575 512.001-448.003 0-247.421-229.229-447.993-512.001-447.993z m0 831.992c-247.423 0-448-171.922-448-383.999 0-130.116 75.695-244.92 191.205-314.369l-2.02-148.433 150.64 90.547c34.703-7.388 70.803-11.744 108.173-11.744 247.425 0 448 171.922 448 384S759.428 831.995 512.002 831.995z m224-351.997h-448c-17.673 0-32 14.326-32 31.998S270.328 544 288 544h448c17.673 0 32.003-14.33 32.003-32.002S753.674 480 736 480z m-384-128.004h320c17.673 0 32-14.32 32-31.998 0-17.668-14.327-31.992-32-31.992h-320c-17.675 0-32 14.324-32 31.992 0 17.678 14.325 31.998 32 31.998z"  horiz-adv-x="1025" />

    
    <glyph glyph-name="-share" unicode="&#58893;" d="M810.586 229.34400000000005a181.804 181.804 0 0 1-155.337-83.374L390.733 261.682a154.072 154.072 0 0 1 12.436 65.49 175.45 175.45 0 0 1-34.175 104.21L605.116 600.96a185.116 185.116 0 0 1 139.8-62.509 178.823 178.823 0 1 1-186.41 178.643 223.295 223.295 0 0 1 12.435-65.52h-3.011L325.606 473.084a194.088 194.088 0 0 1-108.757 32.76 178.823 178.823 0 1 1 0-357.315 185.116 185.116 0 0 1 139.8 62.508l270.718-118.663a169.308 169.308 0 0 1-6.203-41.702 186.681 186.681 0 0 1 372.821 0 180.479 180.479 0 0 1-183.309 178.672zM744.916 836.21a119.205 119.205 0 1 0-124.264-119.114A122.126 122.126 0 0 0 744.916 836.2090000000001zM216.758 208.05700000000002A119.235 119.235 0 1 0 341.022 327.16999999999996a122.156 122.156 0 0 0-124.264-119.114z m593.828-276.47a119.205 119.205 0 1 0 124.263 119.085 122.126 122.126 0 0 0-124.263-119.085z"  horiz-adv-x="1024" />

    
    <glyph glyph-name="-download" unicode="&#58891;" d="M754.4 131.39999999999998h-41.6c-11 0-20 9-20 20s9 20 20 20h19.4v0.2l21.2-0.2h0.9c121.2 0 219.8 98.6 219.8 219.8S875.5 611 754.3 611h-1.7l-15.3-0.1-4.1 14.7C704.2 729.5 608.5 802 500.5 802c-123.4 0-226.7-92.4-240.2-214.8l-1.9-17.3-17.4-0.5c-108.1-3.4-192.7-90.8-192.7-199 0-108.8 89-198.1 198.4-199h65.5c11 0 20-9 20-20s-9-20-20-20h-66.7c-63.2 0.7-122.5 25.8-167.3 70.6C33.1 247.20000000000005 8.3 307 8.3 370.4c0 62.5 24 121.7 67.6 166.5 39.5 40.7 91.2 65.6 147.1 71.3 10.7 62 41.9 118.8 89.1 161.4C363.8 816.3 430.8 842 500.5 842c62.7 0 122-20.2 171.6-58.3 44-33.9 77.4-80.6 95.2-132.9 64.5-3.1 124.8-29.8 170.8-75.8 49.1-49.1 76.1-114.3 76.1-183.7s-27-134.7-76.1-183.7C893.3 162.70000000000005 835 136.29999999999995 772.3 132v-0.6h-17.9zM491.3 480h40v-360h-40zM497.2 77.60000000000002l-99 99c-7.8 7.8-7.8 20.5 0 28.3 7.8 7.8 20.5 7.8 28.3 0l99-99c7.8-7.8 7.8-20.5 0-28.3-7.9-7.8-20.5-7.8-28.3 0zM596.1 204.89999999999998l-99-99c-7.8-7.8-7.8-20.5 0-28.3 7.8-7.8 20.5-7.8 28.3 0l99 99c7.8 7.8 7.8 20.5 0 28.3-7.8 7.8-20.5 7.8-28.3 0z"  horiz-adv-x="1024" />

    
    <glyph glyph-name="-collection-red" unicode="&#58888;" d="M687.83 810.667c-62.08 0-118.443-23.254-165.42-67.84-47.231 45.056-102.655 67.84-165.375 67.84-149.846 0-271.702-130.475-271.702-290.859 0-93.952 41.899-159.275 72.619-207.19 71.893-113.066 220.715-230.442 303.061-290.346l3.84-2.773A92.16 92.16 0 0 1 521.941 0c19.755 0 39.04 6.4 55.808 18.517l1.067 0.811a291.413 291.413 0 0 0 3.968 2.901c82.304 59.99 231.168 177.494 303.787 290.603 30.549 47.701 72.448 113.067 72.448 206.933 0 160.47-121.643 290.902-271.232 290.902z"  horiz-adv-x="1024" />

    
    <glyph glyph-name="-comment-two" unicode="&#59095;" d="M864 0H160c-52.8 0-96 43.2-96 96V672c0 52.8 43.2 96 96 96h704c52.8 0 96-43.2 96-96v-576c0-52.8-43.2-96-96-96zM160 704c-17.6 0-32-14.4-32-32v-576c0-17.6 14.4-32 32-32h704c17.6 0 32 14.4 32 32V672c0 17.6-14.4 32-32 32H160z m128-384c-17.6 0-32 14.4-32 32v64c0 17.6 14.4 32 32 32s32-14.4 32-32v-64c0-17.6-14.4-32-32-32z m224 0c-17.6 0-32 14.4-32 32v64c0 17.6 14.4 32 32 32s32-14.4 32-32v-64c0-17.6-14.4-32-32-32z m224 0c-17.6 0-32 14.4-32 32v64c0 17.6 14.4 32 32 32s32-14.4 32-32v-64c0-17.6-14.4-32-32-32z"  horiz-adv-x="1024" />

    
    <glyph glyph-name="-collection-green" unicode="&#58913;" d="M687.829333 810.666667c-62.08 0-118.442667-23.253333-165.418666-67.84C475.178667 787.882667 419.754667 810.666667 357.034667 810.666667 207.189333 810.666667 85.333333 680.192 85.333333 519.808c0-93.952 41.898667-159.274667 72.618667-207.189333 71.893333-113.066667 220.714667-230.442667 303.061333-290.346667l3.84-2.773333a92.16 92.16 0 0 1 57.088-19.498667c19.754667 0 39.04 6.4 55.808 18.517333l1.066667 0.810667a291.413333 291.413333 0 0 0 3.968 2.901333c82.304 59.989333 231.168 177.493333 303.786667 290.602667 30.549333 47.701333 72.448 113.066667 72.448 206.933333C959.018667 680.234667 837.376 810.666667 687.786667 810.666667z"  horiz-adv-x="1024" />

    
    <glyph glyph-name="-back" unicode="&#58958;" d="M230.8608 352l198.8096-198.8096a32 32 0 0 0-45.2608-45.2608l-249.856 249.856a37.12 37.12 0 0 0 0 52.48l249.856 249.8048a32 32 0 0 0 45.2608-45.2608L230.8608 416H870.4a32 32 0 1 0 0-64H230.8608z"  horiz-adv-x="1024" />

    
    <glyph glyph-name="-prev" unicode="&#58887;" d="M788.764 777.713c-133.872-78.019-377.177-219.808-525.247-306.106V771.428c0 34.309-27.812 62.122-62.117 62.122-34.297 0-62.103-27.815-62.103-62.122v-372.212l-0.895-0.523 0.895-0.523v-372.058c0-34.309 27.809-62.103 62.103-62.103 34.304 0 62.117 27.795 62.117 62.103V325.774c133.553-77.836 344.571-200.825 482.895-281.437 53.855-32.571 138.079-71.646 138.079 65.991V732.615c-1.949 78.23-59.317 63.202-95.726 45.097z"  horiz-adv-x="1024" />

    
    <glyph glyph-name="-next" unicode="&#58885;" d="M223.098 20.388000000000034c134.023 77.755 377.6 219.074 525.845 305.081l-0.583-299.821c-0.066-34.309 27.692-62.175 61.997-62.242 34.297-0.066 62.161 27.692 62.223 62.002l0.727 372.212c0.582 0.336 0.895 0.522 0.895 0.522l-0.893 0.523 0.726 372.058c0.066 34.309-27.687 62.161-61.982 62.223-34.304 0.069-62.171-27.673-62.238-61.982l-0.583-299.659L266.89 753.683c-53.793 32.677-137.937 71.914-138.207-65.724-0.347-176.687-0.914-469.007-1.213-622.287 1.795-78.23 59.193-63.321 95.636-45.281z"  horiz-adv-x="1024" />

    
    <glyph glyph-name="-play" unicode="&#58882;" d="M512 896C229.227 896 0 666.773 0 384s229.227-512 512-512 512 229.227 512 512S794.773 896 512 896z m-20.161-635.749a34.76 34.76 0 0 0-69.522 0V507.75a34.76 34.76 0 0 0 69.522 0z m125.139 0a34.76 34.76 0 1 0-69.522 0V507.75a34.76 34.76 0 0 0 69.522 0z"  horiz-adv-x="1024" />

    
    <glyph glyph-name="-menu" unicode="&#58886;" d="M128 682.666667h768c12.8 0 21.333333 8.533333 21.333333 21.333333s-8.533333 21.333333-21.333333 21.333333H128c-12.8 0-21.333333-8.533333-21.333333-21.333333s8.533333-21.333333 21.333333-21.333333zM896 405.333333H128c-12.8 0-21.333333-8.533333-21.333333-21.333333s8.533333-21.333333 21.333333-21.333333h768c12.8 0 21.333333 8.533333 21.333333 21.333333s-8.533333 21.333333-21.333333 21.333333zM896 85.33333300000004H128c-12.8 0-21.333333-8.533333-21.333333-21.333333s8.533333-21.333333 21.333333-21.333333h768c12.8 0 21.333333 8.533333 21.333333 21.333333s-8.533333 21.333333-21.333333 21.333333z"  horiz-adv-x="1024" />

    
    <glyph glyph-name="-pause" unicode="&#58892;" d="M512 384m-512 0a512 512 0 1 1 1024 0 512 512 0 1 1-1024 0ZM846.185477 379.590608L343.004261 89.08131600000002a1.415647 1.415647 0 0 0-2.123471 1.160367V671.329888a1.415647 1.415647 0 0 0 2.123471 1.229989l503.181216-290.509292a1.42725 1.42725 0 0 0 0-2.459977zM382.665579 101.20714399999997a59.178678 59.178678 0 0 0-58.935002 59.016227V601.4294259999999a58.935001 58.935001 0 0 0 88.36189 51.056115L794.189466 431.853504a58.911794 58.911794 0 0 0 0-102.112229L412.092467 109.19046300000002a58.818965 58.818965 0 0 0-29.426888-7.983319z m0 524.891668a24.739008 24.739008 0 0 1-24.657783-24.669386v-441.206055a24.657783 24.657783 0 0 1 36.980872-21.339136l382.062189 220.597226a24.622972 24.622972 0 0 1 0 42.678271L394.988668 622.7569579999999a24.599764 24.599764 0 0 1-12.323089 3.341854zM512 384m-512 0a512 512 0 1 1 1024 0 512 512 0 1 1-1024 0ZM846.185477 379.590608L343.004261 89.08131600000002a1.415647 1.415647 0 0 0-2.123471 1.160367V671.329888a1.415647 1.415647 0 0 0 2.123471 1.229989l503.181216-290.509292a1.42725 1.42725 0 0 0 0-2.459977zM382.665579 84.03372300000001a76.38691 76.38691 0 0 0-76.073611 76.189648V601.4294259999999a76.073611 76.073611 0 0 0 114.110416 65.862388l382.062189-220.585622a76.073611 76.073611 0 0 0 0-131.771191l-382.062189-220.585622a75.992385 75.992385 0 0 0-38.036805-10.315656z m0 524.949687a7.484362 7.484362 0 0 1-3.759587-1.07914 7.147856 7.147856 0 0 1-3.759586-6.486447v-441.194452a7.530777 7.530777 0 0 1 11.267156-6.509655l382.073792 220.60883a7.495966 7.495966 0 0 1 0 12.996101l-382.073792 220.585623a7.298704 7.298704 0 0 1-3.747983 1.07914z"  horiz-adv-x="1024" />

    
    <glyph glyph-name="-search" unicode="&#58881;" d="M882.637-8.308999999999969L730.352 187.808a368.462 368.462 0 0 1 22.89 21.01c33.348 33.35 59.534 72.193 77.83 115.453 18.948 44.803 28.555 92.379 28.555 141.406 0 49.022-9.608 96.594-28.557 141.394-18.295 43.256-44.48 82.097-77.828 115.446s-72.188 59.535-115.444 77.83c-44.799 18.949-92.368 28.557-141.389 28.557-49.021 0-96.594-9.608-141.394-28.557-43.256-18.295-82.099-44.482-115.446-77.83-33.349-33.348-59.534-72.19-77.83-115.446-18.95-44.8-28.557-92.372-28.557-141.394 0-49.027 9.608-96.603 28.556-141.406 18.296-43.26 44.481-82.104 77.83-115.454 33.347-33.35 72.189-59.537 115.446-77.834 44.8-18.948 92.372-28.556 141.394-28.556 49.02 0 96.591 9.609 141.39 28.557a364.049 364.049 0 0 1 37.54 18.503l154.416-198.86c11.34-14.604 31.988-17.546 46.12-6.573l1.706 1.325c14.134 10.975 16.397 31.708 5.057 46.312zM496.409 163.82600000000002c-166.428 0-301.829 135.41-301.829 301.852 0 166.429 135.4 301.829 301.83 301.829 166.423 0 301.817-135.4 301.817-301.829 0.001-166.442-135.394-301.852-301.818-301.852z"  horiz-adv-x="1024" />

    


  </font>
</defs>
</svg>
