<?xml version="1.0" standalone="no"?><!DOCTYPE svg PUBLIC "-//W3C//DTD SVG 1.1//EN" "http://www.w3.org/Graphics/SVG/1.1/DTD/svg11.dtd"><svg t="1602651527862" class="icon" viewBox="0 0 1024 1024" version="1.1" xmlns="http://www.w3.org/2000/svg" p-id="3008" width="128" height="128" xmlns:xlink="http://www.w3.org/1999/xlink"><defs><style type="text/css"></style></defs><path d="M511.992325 0.607844c-282.439674 0-511.397273 228.957599-511.397273 511.38704 0 282.443767 228.957599 511.398296 511.397273 511.398296 282.454 0 511.412622-228.954529 511.412622-511.398296C1023.404947 229.564419 794.446325 0.607844 511.992325 0.607844zM511.992325 984.058312C251.276419 984.058312 39.92992 772.72921 39.92992 511.994883 39.92992 251.28614 251.274372 39.941688 511.992325 39.941688c260.708743 0 472.071615 211.344452 472.071615 472.053196C984.065987 772.72921 772.703115 984.058312 511.992325 984.058312zM289.645284 598.196151l140.343375 140.346445 70.204945-70.203922L359.82567 527.993253 289.645284 598.196151zM474.362286 666.557098l-46.155203 46.155203L315.473533 599.976704l46.139853-46.155203L474.362286 666.557098zM758.685867 205.52184l-83.711564 82.820264 1.666966 21.883403-49.353035 48.830125c-35.619242-25.838482-104.638175-61.889559-145.784294-21.202904-40.816614 40.393989-31.745005 51.596122-52.156894 71.792093-40.820708 40.392966-112.280226-10.097986-193.920618 70.686922-61.246923 60.588937-40.816614 181.747367 40.821731 262.534322 81.636299 80.784908 204.13219 100.961436 265.384229 40.392966 81.616856-80.784908 30.583552-151.453411 71.402213-191.865819 20.430308-20.176528 31.766494-11.202133 72.606645-51.595099 43.388183-42.950208 9.389858-101.596909-17.396205-135.357827l51.813063-51.263547 20.391423-0.020466 83.729983-82.839707L758.685867 205.52184zM649.709897 534.017456c-34.529421 34.150798-45.12985 25.594935-61.387116 43.62252-50.163493 55.627948 8.634658 104.149035-60.368926 172.45063-51.785433 51.209312-155.353231 34.148751-224.375234-34.150798-69.02098-68.301596-86.293365-170.740686-34.513048-221.966371 69.02405-68.301596 135.557372-9.149381 184.420243-59.763129 16.863063-17.463744 9.588379-26.546609 44.098357-60.697407 36.869722-36.4604 75.315336-10.256598 103.450117 11.521404l-61.340043 60.690244c-9.847276-4.405333-20.747533-6.874571-32.232099-6.874571-43.657312 0-79.047334 35.391045-79.047334 79.047334 0 43.654242 35.390022 79.046311 79.047334 79.046311 43.656289 0 79.046311-35.392068 79.046311-79.046311 0-9.729595-1.769296-19.044752-4.984524-27.652803l62.751183-62.086034C665.383878 456.831516 684.227038 499.850286 649.709897 534.017456zM568.017316 517.894244c0 33.44574-27.110451 60.559261-60.557214 60.559261s-60.558238-27.113521-60.558238-60.559261c0-33.44574 27.111474-60.558238 60.558238-60.558238S568.017316 484.448504 568.017316 517.894244zM735.987912 336.281953l-30.185486 5.116531L573.200362 474.001571c-4.663206-6.970762-10.41521-13.146415-16.998139-18.313088l132.203998-132.307352 2.046612-27.006074 64.466244-67.534116 44.511773 43.812855L735.987912 336.281953z" p-id="3009"></path></svg>