<?xml version="1.0" standalone="no"?><!DOCTYPE svg PUBLIC "-//W3C//DTD SVG 1.1//EN" "http://www.w3.org/Graphics/SVG/1.1/DTD/svg11.dtd"><svg t="1602685256353" class="icon" viewBox="0 0 1024 1024" version="1.1" xmlns="http://www.w3.org/2000/svg" p-id="3849" xmlns:xlink="http://www.w3.org/1999/xlink" width="128" height="128"><defs><style type="text/css"></style></defs><path d="M316.8 514.8c-4.1 0-8.2-1.6-11.2-4.9-5.6-6-5.1-15.4 1.1-20.9L690 148.6c6.2-5.5 15.7-5 21.3 1 5.6 6 5.1 15.4-1.1 20.9L326.9 511c-2.8 2.5-6.5 3.8-10.1 3.8z" fill="#ffffff" p-id="3850"></path><path d="M700.2 855c-3.6 0-7.2-1.3-10.1-3.8L306.7 511c-6.2-5.5-6.6-14.8-1.1-20.9 5.6-6 15.1-6.5 21.3-1l383.3 340.3c6.2 5.5 6.6 14.8 1.1 20.9-3 3.1-7 4.7-11.1 4.7z" fill="#ffffff" p-id="3851"></path></svg>